# xmcd CD database file
#
# Track frame offsets:
#	150
#	13796
#	28780
#	41380
#	54824
#	65689
#	81165
#	97151
#	109017
#	124264
#	138346
#	150755
#
# Disc length: 2145 seconds
#
# Revision: 3
# Processed by: cddbd v1.4PL0 Copyright (c) Steve Scherf et al.
# Submitted via: CDex 1.50Beta7
#
DISCID=94085f0c
DTITLE=Tião Carreiro and Pardinho - Felicidade
DYEAR=1985
DGENRE=Sertanejo Raiz
TTITLE0=Tchau Amor
TTITLE1=Felicidade
TTITLE2=Flor do Baile
TTITLE3=Esqueça Tua Maria
TTITLE4=Encontrei Quem Eu Queria
TTITLE5=Três Namoradas
TTITLE6=Rei Dos Canoeiros
TTITLE7=Moradia
TTITLE8=Rolinha Cabocla
TTITLE9=Cobra Venenosa
TTITLE10=Mineiro De Monte Belo
TTITLE11=Canarinho Tá Chorando
EXTD=YEAR: 1985
EXTT0=
EXTT1=
EXTT2=
EXTT3=
EXTT4=
EXTT5=
EXTT6=
EXTT7=
EXTT8=
EXTT9=
EXTT10=
EXTT11=
PLAYORDER=
